HIERARCHY
ROOT Hips
{
	OFFSET 0.000000 0.000000 0.000000
	CHANNELS 6 Xposition Yposition Zposition Zrotation Yrotation Xrotation 
	JOINT LowerBack
	{
		OFFSET 0.000000 0.000000 0.000000
		CHANNELS 3 Zrotation Yrotation Xrotation
		JOINT Spine
		{
			OFFSET 0.028270 2.035590 -0.193380
			CHANNELS 3 Zrotation Yrotation Xrotation
			JOINT Spine1
			{
				OFFSET 0.056720 2.048850 -0.042750
				CHANNELS 3 Zrotation Yrotation Xrotation
				JOINT Neck
				{
					OFFSET 0.000000 0.000000 0.000000
					CHANNELS 3 Zrotation Yrotation Xrotation
					JOINT Neck1
					{
						OFFSET -0.054170 1.746240 0.172020
						CHANNELS 3 Zrotation Yrotation Xrotation
						JOINT Head
						{
							OFFSET 0.104070 1.761360 -0.123970
							CHANNELS 3 Zrotation Yrotation Xrotation
							End Site
							{
								OFFSET 0.000000 0.000000 0.000000
							}
						}
					}
				}
				JOINT LeftShoulder
				{
					OFFSET 0.000000 0.000000 0.000000
					CHANNELS 3 Zrotation Yrotation Xrotation
					JOINT LeftArm
					{
						OFFSET 3.362410 1.200890 -0.311210
						CHANNELS 3 Zrotation Yrotation Xrotation
						JOINT LeftForeArm
						{
							OFFSET 4.983000 -0.000000 -0.000000
							CHANNELS 3 Zrotation Yrotation Xrotation
							JOINT LeftHand
							{
								OFFSET 3.483560 -0.000000 -0.000000
								CHANNELS 3 Zrotation Yrotation Xrotation
								JOINT LeftFingerBase
								{
									OFFSET 0.000000 0.000000 0.000000
									CHANNELS 3 Zrotation Yrotation Xrotation
									JOINT LeftHandIndex1
									{
										OFFSET 0.715260 -0.000000 -0.000000
										CHANNELS 3 Zrotation Yrotation Xrotation
										End Site
										{
											OFFSET 0.000000 0.000000 0.000000
										}
									}
								}
								JOINT LThumb
								{
									OFFSET 0.000000 0.000000 0.000000
									CHANNELS 3 Zrotation Yrotation Xrotation
									End Site
									{
										OFFSET 0.000000 0.000000 0.000000
									}
								}
							}
						}
					}
				}
				JOINT RightShoulder
				{
					OFFSET 0.000000 0.000000 0.000000
					CHANNELS 3 Zrotation Yrotation Xrotation
					JOINT RightArm
					{
						OFFSET -3.136600 1.374050 -0.404650
						CHANNELS 3 Zrotation Yrotation Xrotation
						JOINT RightForeArm
						{
							OFFSET -5.241900 -0.000000 -0.000000
							CHANNELS 3 Zrotation Yrotation Xrotation
							JOINT RightHand
							{
								OFFSET -3.444170 -0.000000 -0.000000
								CHANNELS 3 Zrotation Yrotation Xrotation
								JOINT RightFingerBase
								{
									OFFSET 0.000000 0.000000 0.000000
									CHANNELS 3 Zrotation Yrotation Xrotation
									JOINT RightHandIndex1
									{
										OFFSET -0.622530 -0.000000 -0.000000
										CHANNELS 3 Zrotation Yrotation Xrotation
										End Site
										{
											OFFSET 0.000000 0.000000 0.000000
										}
									}
								}
								JOINT RThumb
								{
									OFFSET 0.000000 0.000000 0.000000
									CHANNELS 3 Zrotation Yrotation Xrotation
									End Site
									{
										OFFSET 0.000000 0.000000 0.000000
									}
								}
							}
						}
					}
				}
			}
		}
	}
}
}
MOTION
Frames: 18
Frame Time: 0.008333
-13.423566 17.021255 -0.868312 157.745431 89.456986 169.169107 3.336023 -2.814746 -2.228161 -0.178236 -3.206569 -3.373682 -7.813421 -3.283343 0.279440 10.190558 -4.986154 -5.333060 -4.850628 -0.381358 0.567520 0.000000 0.000000 0.000000 -5.303821 2.383955 2.177052 -59.116443 -15.376358 12.406730 -3.159869 -36.058007 -0.010988 5.747927 0.149757 0.002187 -0.125681 0.128056 0.000000 0.000000 0.000000 0.000000 0.000000 0.000000 0.000000 21.493755 -4.264874 0.885074 69.890843 0.371829 -7.112632 3.551356 16.299390 0.007174 0.299125 4.874145 0.010016 0.073540 -0.056843 -0.000000 0.000000 0.000000 0.000000 0.000000 0.000000 0.000000 
-13.253900 17.043913 -0.852510 -165.649954 89.553895 -154.346850 3.773972 -2.711539 -2.212432 -0.153254 -3.130911 -3.390305 -7.772991 -3.196294 0.257588 10.061528 -4.865438 -5.318488 -4.836829 -0.380631 0.574512 0.000000 0.000000 0.000000 -5.445277 2.627511 2.117540 -59.794507 -14.883455 12.172451 -3.133797 -35.776997 -0.010788 5.720398 0.171481 0.003351 -0.121811 0.125576 0.000000 0.000000 0.000000 0.000000 0.000000 0.000000 0.000000 21.258625 -4.071859 0.883113 69.981026 0.535184 -7.216754 3.584005 16.128941 0.007203 0.299324 4.798602 0.009819 0.074936 -0.057286 -0.000000 0.000000 0.000000 0.000000 0.000000 0.000000 0.000000 
-13.087962 17.066883 -0.835491 -145.117997 89.299571 -133.944590 4.135543 -2.662377 -2.172208 -0.089178 -3.104412 -3.399120 -7.724519 -3.168220 0.245626 9.970508 -4.749338 -5.304072 -4.817223 -0.379407 0.581117 0.000000 0.000000 0.000000 -5.541952 2.802951 2.066085 -60.499021 -14.394277 11.929123 -3.114573 -35.433764 -0.010605 5.677706 0.211903 0.005520 -0.118507 0.123295 0.000000 0.000000 0.000000 0.000000 0.000000 0.000000 0.000000 21.041690 -3.903615 0.881484 70.065100 0.732652 -7.244572 3.604298 16.014956 0.007187 0.300263 4.728084 0.009722 0.075770 -0.057604 -0.000000 0.000000 0.000000 0.000000 0.000000 0.000000 0.000000 
-12.925830 17.089834 -0.817244 -136.325209 88.991386 -125.279301 4.467935 -2.614830 -2.111365 -0.017413 -3.077542 -3.400786 -7.680449 -3.143308 0.225366 9.903045 -4.631278 -5.283954 -4.797589 -0.378218 0.588649 0.000000 0.000000 0.000000 -5.594951 2.935990 2.029831 -61.202083 -13.893671 11.686947 -3.097473 -35.038459 -0.010431 5.619822 0.270263 0.008487 -0.115095 0.121050 0.000000 0.000000 0.000000 0.000000 0.000000 0.000000 0.000000 20.845741 -3.738838 0.878076 70.151261 0.952759 -7.217104 3.617665 15.971583 0.007168 0.308818 4.666639 0.009925 0.076320 -0.058049 -0.000000 0.000000 0.000000 0.000000 0.000000 0.000000 0.000000 
-12.767367 17.112643 -0.797842 -133.032681 88.691424 -122.106579 4.745438 -2.570845 -2.034761 0.040863 -3.049497 -3.398027 -7.641344 -3.117194 0.201118 9.857344 -4.522583 -5.263951 -4.779233 -0.377110 0.595774 0.000000 0.000000 0.000000 -5.613953 3.033833 2.003130 -61.884763 -13.394279 11.462546 -3.081971 -34.598116 -0.010249 5.546092 0.344365 0.012054 -0.111632 0.118745 0.000000 0.000000 0.000000 0.000000 0.000000 0.000000 0.000000 20.679962 -3.585623 0.875095 70.235621 1.200300 -7.113842 3.624711 15.999643 0.007155 0.318033 4.623000 0.010228 0.076632 -0.058687 -0.000000 0.000000 0.000000 0.000000 0.000000 0.000000 0.000000 
-12.612403 17.135309 -0.777241 -132.646834 88.414299 -121.830202 4.955675 -2.532483 -1.947681 0.082552 -3.021667 -3.391890 -7.607978 -3.090988 0.175555 9.835093 -4.428926 -5.246373 -4.763017 -0.376132 0.601925 0.000000 0.000000 0.000000 -5.607633 3.098947 1.984525 -62.531847 -12.904921 11.272812 -3.068906 -34.118250 -0.010044 5.456213 0.430958 0.016219 -0.108217 0.116330 0.000000 0.000000 0.000000 0.000000 0.000000 0.000000 0.000000 20.552321 -3.449478 0.872577 70.311550 1.473842 -6.928575 3.625015 16.099896 0.007156 0.323205 4.604450 0.010433 0.076705 -0.059537 -0.000000 0.000000 0.000000 0.000000 0.000000 0.000000 0.000000 
-12.460478 17.157877 -0.755700 -133.858210 88.155409 -123.135100 5.106735 -2.498824 -1.858820 0.110066 -2.994271 -3.384508 -7.580708 -3.065078 0.148287 9.832990 -4.343308 -5.229036 -4.749454 -0.375344 0.607784 0.000000 0.000000 0.000000 -5.590194 3.133690 1.974171 -63.131893 -12.426746 11.131303 -3.058649 -33.606900 -0.009813 5.350736 0.528223 0.020585 -0.104903 0.113788 0.000000 0.000000 0.000000 0.000000 0.000000 0.000000 0.000000 20.460161 -3.322782 0.870282 70.377319 1.758276 -6.691041 3.619105 16.274942 0.007177 0.327419 4.614457 0.010639 0.076520 -0.060630 -0.000000 0.000000 0.000000 0.000000 0.000000 0.000000 0.000000 
-12.311172 17.180440 -0.733282 -136.076796 87.912536 -125.427416 5.199810 -2.468568 -1.775254 0.124360 -2.966578 -3.376931 -7.559722 -3.038821 0.120911 9.849691 -4.270188 -5.213027 -4.738819 -0.374772 0.613117 0.000000 0.000000 0.000000 -5.569355 3.141725 1.970704 -63.677685 -11.961253 11.045256 -3.051449 -33.070232 -0.009550 5.230129 0.633424 0.025153 -0.101716 0.111082 0.000000 0.000000 0.000000 0.000000 0.000000 0.000000 0.000000 20.404186 -3.209874 0.867729 70.428876 2.053014 -6.402760 3.607268 16.517236 0.007222 0.325025 4.657013 0.010646 0.076130 -0.061974 -0.000000 0.000000 0.000000 0.000000 0.000000 0.000000 0.000000 
-12.164059 17.203165 -0.709946 -138.953482 87.684005 -128.356114 5.235233 -2.440316 -1.701345 0.126194 -2.937516 -3.369092 -7.544913 -3.011130 0.097337 9.884689 -4.217979 -5.202397 -4.730969 -0.374377 0.616823 0.000000 0.000000 0.000000 -5.550729 3.138303 1.971899 -64.166340 -11.522070 11.024470 -3.048203 -32.505082 -0.009250 5.096421 0.742045 0.029623 -0.098732 0.108197 0.000000 0.000000 0.000000 0.000000 0.000000 0.000000 0.000000 20.385521 -3.118556 0.863670 70.461942 2.365245 -6.053904 3.589799 16.815232 0.007289 0.307409 4.734334 0.010055 0.075623 -0.063554 -0.000000 0.000000 0.000000 0.000000 0.000000 0.000000 0.000000 
-12.018637 17.226102 -0.685951 -142.133699 87.461716 -131.563672 5.224967 -2.411958 -1.643900 0.118669 -2.906178 -3.363050 -7.535327 -2.981308 0.075574 9.932252 -4.177148 -5.193063 -4.725528 -0.374180 0.620110 0.000000 0.000000 0.000000 -5.540355 3.121437 1.977194 -64.599138 -11.095568 11.059760 -3.048064 -31.923167 -0.008919 4.950850 0.853881 0.033794 -0.095909 0.105127 0.000000 0.000000 0.000000 0.000000 0.000000 0.000000 0.000000 20.393890 -3.038509 0.858468 70.480766 2.680972 -5.679547 3.567809 17.162297 0.007376 0.278593 4.842710 0.009064 0.075017 -0.065379 -0.000000 0.000000 0.000000 0.000000 0.000000 0.000000 0.000000 
-11.874466 17.249276 -0.661381 -145.406629 87.244230 -134.839053 5.174368 -2.381960 -1.605870 0.103432 -2.871515 -3.359493 -7.529751 -2.948375 0.055888 9.988735 -4.147240 -5.184623 -4.721768 -0.374142 0.623140 0.000000 0.000000 0.000000 -5.539051 3.094018 1.984994 -64.980956 -10.674389 11.139205 -3.050458 -31.331471 -0.008562 4.795333 0.968124 0.037765 -0.093232 0.101865 0.000000 0.000000 0.000000 0.000000 0.000000 0.000000 0.000000 20.421924 -2.968543 0.852259 70.488369 2.998952 -5.288277 3.542106 17.546613 0.007479 0.236636 4.977963 0.007576 0.074374 -0.067428 -0.000000 0.000000 0.000000 0.000000 0.000000 0.000000 0.000000 
-11.731454 17.272609 -0.636141 -148.672180 87.039368 -138.092645 5.080799 -2.349084 -1.577989 0.080297 -2.831552 -3.356802 -7.527011 -2.910383 0.038284 10.051966 -4.128029 -5.176956 -4.718877 -0.374192 0.625826 0.000000 0.000000 0.000000 -5.543708 3.060135 1.994143 -65.317527 -10.256229 11.247370 -3.055153 -30.735376 -0.008189 4.631761 1.085680 0.041440 -0.090710 0.098417 0.000000 0.000000 0.000000 0.000000 0.000000 0.000000 0.000000 20.464137 -2.907472 0.845672 70.489591 3.324114 -4.889935 3.513332 17.952659 0.007589 0.182770 5.133410 0.005386 0.073724 -0.069685 -0.000000 0.000000 0.000000 0.000000 0.000000 0.000000 0.000000 
-11.588925 17.295810 -0.610703 -151.712133 86.839551 -141.090872 4.963992 -2.312840 -1.577350 0.053812 -2.787995 -3.356340 -7.524900 -2.868736 0.031956 10.116155 -4.119745 -5.178363 -4.714817 -0.374113 0.626023 0.000000 0.000000 0.000000 -5.561403 3.074924 2.001394 -65.619876 -9.892665 11.412496 -3.064483 -30.102503 -0.007817 4.469900 1.196081 0.044516 -0.088576 0.094914 0.000000 0.000000 0.000000 0.000000 0.000000 0.000000 0.000000 20.507235 -2.852477 0.833687 70.484826 3.654667 -4.465156 3.482488 18.383626 0.007694 0.110821 5.299883 0.002199 0.073192 -0.072017 -0.000000 0.000000 0.000000 0.000000 0.000000 0.000000 0.000000 
-11.447107 17.318734 -0.584761 -154.586578 86.665771 -143.914929 4.811095 -2.270576 -1.584619 0.021049 -2.736200 -3.358104 -7.522435 -2.819272 0.022181 10.178568 -4.109077 -5.173536 -4.709973 -0.374074 0.627860 0.000000 0.000000 0.000000 -5.576955 3.068338 2.008741 -65.895197 -9.488863 11.548912 -3.073183 -29.495631 -0.007444 4.303932 1.313486 0.047592 -0.086447 0.091216 0.000000 0.000000 0.000000 0.000000 0.000000 0.000000 0.000000 20.544637 -2.791197 0.824067 70.487092 3.979644 -4.059548 3.450345 18.821594 0.007793 0.037382 5.468096 -0.001288 0.072670 -0.074506 -0.000000 0.000000 0.000000 0.000000 0.000000 0.000000 0.000000 
-11.305980 17.340978 -0.558495 -157.243425 86.526613 -146.518476 4.628359 -2.221144 -1.592989 -0.016701 -2.675065 -3.359830 -7.518159 -2.760633 0.013804 10.236271 -4.098214 -5.168274 -4.702920 -0.373892 0.629615 0.000000 0.000000 0.000000 -5.591935 3.073498 2.014647 -66.150444 -9.079374 11.667010 -3.082714 -28.898086 -0.007089 4.140903 1.433882 0.050369 -0.084479 0.087409 0.000000 0.000000 0.000000 0.000000 0.000000 0.000000 0.000000 20.568987 -2.723241 0.814937 70.497979 4.308653 -3.658016 3.417597 19.261610 0.007881 -0.037301 5.630323 -0.004976 0.072203 -0.077084 -0.000000 0.000000 0.000000 0.000000 0.000000 0.000000 0.000000 
-11.165142 17.362137 -0.531925 -159.743959 86.431763 -148.952416 4.415441 -2.165337 -1.612026 -0.059283 -2.605814 -3.361443 -7.511273 -2.693791 0.014958 10.289687 -4.087160 -5.170941 -4.692784 -0.373419 0.628978 0.000000 0.000000 0.000000 -5.606915 3.141602 2.017156 -66.391009 -8.711548 11.791025 -3.095798 -28.284782 -0.006760 3.987197 1.549978 0.052749 -0.082888 0.083605 0.000000 0.000000 0.000000 0.000000 0.000000 0.000000 0.000000 20.579785 -2.645641 0.801847 70.516262 4.643465 -3.235611 3.384234 19.711564 0.007943 -0.112900 5.774588 -0.008961 0.071819 -0.079625 -0.000000 0.000000 0.000000 0.000000 0.000000 0.000000 0.000000 
-11.024968 17.381811 -0.505222 -162.089770 86.391962 -151.234594 4.175815 -2.099634 -1.627062 -0.106614 -2.524396 -3.363963 -7.501193 -2.615098 0.010779 10.333964 -4.064421 -5.166758 -4.680133 -0.372839 0.630041 0.000000 0.000000 0.000000 -5.614875 3.200175 2.018667 -66.621998 -8.294689 11.844943 -3.107056 -27.716055 -0.006455 3.839900 1.671947 0.055126 -0.081288 0.079671 0.000000 0.000000 0.000000 0.000000 0.000000 0.000000 0.000000 20.568506 -2.548086 0.792502 70.548448 4.972194 -2.820221 3.351338 20.162241 0.007990 -0.175403 5.898694 -0.012448 0.071427 -0.082223 -0.000000 0.000000 0.000000 0.000000 0.000000 0.000000 0.000000 
-10.885323 17.399606 -0.478533 -164.320354 86.413629 -153.402444 3.914200 -2.024355 -1.638463 -0.157771 -2.431503 -3.365902 -7.487793 -2.524966 0.008110 10.369445 -4.033689 -5.163977 -4.664516 -0.372020 0.630450 0.000000 0.000000 0.000000 -5.621383 3.290976 2.018031 -66.842957 -7.874114 11.858413 -3.118742 -27.171134 -0.006182 3.704329 1.793779 0.057405 -0.079861 0.075702 0.000000 0.000000 0.000000 0.000000 0.000000 0.000000 0.000000 20.536394 -2.432177 0.783653 70.589590 5.303998 -2.387956 3.319151 20.617604 0.008021 -0.223894 5.998117 -0.015134 0.071045 -0.084803 -0.000000 0.000000 0.000000 0.000000 0.000000 0.000000 0.000000 
